# AST/ASF file generated using VICON BodyLanguage
# -----------------------------------------------
:version 1.10
:name VICON
:units
  mass 1.0
  length 0.45
  angle deg
:documentation
   .ast/.asf automatically generated from VICON data using
   VICON BodyBuilder and BodyLanguage model FoxedUp or BRILLIANT.MOD
:root
   order TX TY TZ RX RY RZ
   axis XYZ
   position 0 0 0  
   orientation 0 0 0 
:bonedata
  begin
     id 1 
     name lhipjoint
     direction 0.57768 -0.667037 0.470475 
     length 2.36008 
     axis 0 0 0  XYZ
  end
  begin
     id 2 
     name lfemur
     direction 0.34202 -0.939693 0  
     length 6.97235  
     axis 0 0 20  XYZ
    dof rx ry rz
    limits (-160.0 20.0)
           (-70.0 70.0)
           (-60.0 70.0)
  end
  begin
     id 3 
     name ltibia
     direction 0.34202 -0.939693 0   
     length 6.93428   
     axis 0 0 20   XYZ
    dof rx
    limits (-10.0 170.0)
  end
  begin
     id 4 
     name lfoot
     direction 0.133018 -0.365463 0.921272   
     length 2.18603   
     axis -90 7.62852e-016 20   XYZ
    dof rx rz
    limits (-45.0 90.0)
           (-70.0 20.0)
  end
  begin
     id 5 
     name ltoes
     direction 1.53519e-011 -4.22055e-011 1   
     length 1.07924   
     axis -90 7.62852e-016 20   XYZ
    dof rx
    limits (-90.0 20.0)
  end
  begin
     id 6 
     name rhipjoint
     direction -0.577712 -0.667019 0.470462   
     length 2.36015  
     axis 0 0 0  XYZ 
  end
  begin
     id 7 
     name rfemur
     direction -0.34202 -0.939693 0   
     length 6.71195   
     axis 0 0 -20   XYZ
    dof rx ry rz
    limits (-160.0 20.0)
           (-70.0 70.0)
           (-70.0 60.0)
  end
  begin
     id 8 
     name rtibia
     direction -0.34202 -0.939693 0   
     length 7.04592   
     axis 0 0 -20   XYZ
    dof rx
    limits (-10.0 170.0)
 end
 begin
     id 9 
     name rfoot
     direction -0.113796 -0.312651 0.943027   
     length 2.03846  
     axis -90 -7.62852e-016 -20   XYZ
    dof rx rz
    limits (-45.0 90.0)
           (-20.0 70.0)
  end
  begin
     id 10 
     name rtoes
     direction -1.53586e-011 -4.218e-011 1   
     length 1.01562   
     axis -90 -7.62852e-016 -20   XYZ
    dof rx
    limits (-90.0 20.0)
  end
  begin
     id 11 
     name lowerback
     direction -0.0417299 0.991937 -0.119667   
     length 2.05257   
     axis 0 0 0   XYZ
    dof rx ry rz
    limits (-20.0 45.0)
           (-30.0 30.0)
           (-30.0 30.0)
  end
  begin
     id 12 
     name upperback
     direction -0.00017666 0.999999 0.00105178   
     length 2.05693   
     axis 0 0 0   XYZ
    dof rx ry rz
    limits (-20.0 45.0)
           (-30.0 30.0)
           (-30.0 30.0)
  end
  begin
     id 13 
     name thorax
     direction 0.0185169 0.998203 0.0569866   
     length 2.0932   
     axis 0 0 0   XYZ
    dof rx ry rz
    limits (-20.0 45.0)
           (-30.0 30.0)
           (-30.0 30.0)
  end
  begin
     id 14 
     name lowerneck
     direction -0.0212406 0.982645 0.184277   
     length 1.72509   
     axis 0 0 0   XYZ
    dof rx ry rz
    limits (-20.0 45.0)
           (-30.0 30.0)
           (-30.0 30.0)
  end
  begin
     id 15 
     name upperneck
     direction 0.00528579 0.965323 -0.261004   
     length 1.76294   
     axis 0 0 0   XYZ
    dof rx ry rz
    limits (-20.0 45.0)
           (-30.0 30.0)
           (-30.0 30.0)
  end
  begin
     id 16
     name head
     direction 0.00695421 0.994078 -0.108445  
     length 1.78678  
     axis 0 0 0   XYZ
    dof rx ry rz
    limits (-20.0 45.0)
           (-30.0 30.0)
           (-30.0 30.0)
  end
  begin
     id 17 
     name lclavicle
     direction 0.97277 0.211305 -0.095232  
     length 3.84823  
     axis 0 0 0   XYZ
    dof ry rz
    limits (-20.0 10.0)
           (0.0 20.0)
  end
  begin
     id 18 
     name lhumerus
     direction 1 -4.48957e-011 -1.98313e-027   
     length 4.97185   
     axis 180 -30 -90   XYZ
    dof rx ry rz
    limits (-60.0 90.0)
           (-90.0 90.0)
           (-90.0 90.0)
  end
  begin
     id 19
     name lradius
     direction 1 -4.4898e-011 7.31063e-027   
     length 3.35811   
     axis 180 -30 -90   XYZ
    dof rx
    limits (-10.0 170.0)
  end
  begin
     id 20
     name lwrist
     direction 1 -4.48938e-011 9.95048e-027   
     length 1.67905   
     axis -8.75986e-015 90 90   XYZ
    dof ry
    limits (-180.0 0.0)
 end
  begin
     id 21 
     name lhand
     direction 1 -4.4901e-011 1.9901e-026   
     length 0.622776   
     axis -1.26985e-014 90 90   XYZ
    dof rx rz
    limits (-90.0 90.0)
           (-45.0 45.0)
  end
  begin
     id 22 
     name lfingers
     direction 1 -4.48961e-011 3.98019e-026   
     length 0.502098   
     axis -2.5397e-014 90 90   XYZ
    dof rx
    limits (0.0 90.0)
  end
  begin
     id 23
     name lthumb
     direction 0.707107 -6.34933e-011 0.707107   
     length 0.720915   
     axis -90 45 2.85299e-015   XYZ
    dof rx rz
    limits (-45.0 45.0)
           (-45.0 45.0)
  end
  begin
     id 24 
     name rclavicle
     direction -0.990867 0.133739 -0.0172226   
     length 3.78845  
     axis 0 0 0   XYZ 
    dof ry rz
    limits (-10.0 20.0)
           (-20.0 0.0)
  end
  begin
     id 25 
     name rhumerus
     direction -1 -4.48972e-011 -1.99267e-027  
     length 4.96493   
     axis 180 30 90   XYZ
    dof rx ry rz
    limits (-90.0 60.0)
           (-90.0 90.0)
           (-90.0 90.0)
  end
  begin
     id 26 
     name rradius
     direction -1 -4.48969e-011 8.96093e-027   
     length 3.34929   
     axis 180 30 90   XYZ
    dof rx
    limits (-10.0 170.0)
  end
  begin
     id 27 
     name rwrist
     direction -1 -4.48953e-011 9.95048e-027   
     length 1.67464   
     axis -8.75986e-015 -90 -90   XYZ
    dof ry
    limits (-180.0 0.0)
  end
  begin
     id 28
     name rhand
     direction -1 -4.49001e-011 1.9901e-026   
     length 0.638041   
     axis -1.26985e-014 -90 -90   XYZ
    dof rx rz
    limits (-90.0 90.0)
           (-45.0 45.0)
  end
  begin
     id 29
     name rfingers
     direction -1 -4.48967e-011 3.98019e-026   
     length 0.514405   
     axis -2.5397e-014 -90 -90   XYZ
    dof rx
    limits (0.0 90.0)
  end
  begin
     id 30
     name rthumb
     direction -0.707107 -6.34904e-011 0.707107   
     length 0.738586   
     axis -90 -45 -2.85299e-015   XYZ
    dof rx rz
    limits (-45.0 45.0)
           (-45.0 45.0)
  end
:hierarchy
  begin
    root lhipjoint rhipjoint lowerback
    lhipjoint lfemur
    lfemur ltibia
    ltibia lfoot
    lfoot ltoes
    rhipjoint rfemur
    rfemur rtibia
    rtibia rfoot
    rfoot rtoes
    lowerback upperback
    upperback thorax
    thorax lowerneck lclavicle rclavicle
    lowerneck upperneck
    upperneck head
    lclavicle lhumerus
    lhumerus lradius
    lradius lwrist
    lwrist lhand lthumb
    lhand lfingers
    rclavicle rhumerus
    rhumerus rradius
    rradius rwrist
    rwrist rhand rthumb
    rhand rfingers
  end

#!OML:ASF E:\Mandelcareful walks\Project 1\Capture day 1\Session 1\Subject1.ASF
:FULLY-SPECIFIED
:DEGREES
186
root -26.7209 16.5162 -14.1803 172.008 80.522 165.598
lowerback -8.85647 -0.597755 -4.87413
upperback 0.713466 -0.256661 -0.0926518
thorax 5.74935 -0.27095 2.61228
lowerneck -22.6295 -2.64409 -6.56635
upperneck 29.7721 -2.183 4.02033
head 14.0952 -0.951756 2.38385
rclavicle -2.00167e-014 3.5657e-015
rhumerus -31.7219 -5.7797 -86.9819
rradius 27.2076
rwrist -7.71663
rhand -12.0693 -29.5271
rfingers 7.12502
rthumb 13.9902 -59.0364
lclavicle -2.00167e-014 3.5657e-015
lhumerus -27.5423 -3.78795 94.4882
lradius 21.2651
lwrist 2.59789
lhand -18.6643 -7.02497
lfingers 7.12502
lthumb 7.62916 22.8174
rfemur -11.1104 0.784745 15.2134
rtibia 25.2133
rfoot -22.6302 -12.4806
rtoes 7.78863
lfemur -10.5121 -3.34218 -23.4602
ltibia 28.2915
lfoot -25.2005 12.4681
ltoes 6.77501
187
root -26.721 16.5184 -14.1812 171.432 80.4662 165.029
lowerback -8.84707 -0.662331 -4.98161
upperback 0.85628 -0.331874 -0.0446504
thorax 5.90255 -0.319039 2.71239
lowerneck -23.1983 -2.64079 -6.64053
upperneck 30.0037 -2.08091 3.92071
head 14.3123 -0.931718 2.38066
rclavicle -9.75908e-015 1.54058e-014
rhumerus -31.3536 -5.54088 -86.94
rradius 27.1137
rwrist -7.76789
rhand -12.0191 -29.5318
rfingers 7.12502
rthumb 14.0386 -59.0377
lclavicle -9.75908e-015 1.54058e-014
lhumerus -27.2813 -3.61863 94.5476
lradius 21.3201
lwrist 2.64661
lhand -18.6989 -7.0464
lfingers 7.12502
lthumb 7.59577 22.7972
rfemur -11.0705 0.613151 15.0956
rtibia 25.2234
rfoot -22.6247 -12.4019
rtoes 7.62418
lfemur -10.4872 -3.33904 -23.5787
ltibia 28.2795
lfoot -25.1641 12.3547
ltoes 6.81695
188
root -26.7209 16.5182 -14.1809 171.761 80.5292 165.366
lowerback -8.86225 -0.37516 -4.92984
upperback 0.235948 0.0468967 -0.236935
thorax 5.22462 -0.0969026 2.53423
lowerneck -20.6649 -2.67855 -6.04795
upperneck 29.6017 -2.42356 3.78005
head 13.6056 -1.02193 2.15531
rclavicle 1.91486e-014 -1.04362e-014
rhumerus -32.9974 -6.33284 -86.8235
rradius 27.4268
rwrist -7.70447
rhand -12.2309 -29.8111
rfingers 7.12502
rthumb 13.8345 -59.331
lclavicle 1.91486e-014 -1.04362e-014
lhumerus -28.781 -4.53067 94.6674
lradius 21.5089
lwrist 2.90404
lhand -18.552 -7.03458
lfingers 7.12502
lthumb 7.73758 22.8039
rfemur -11.0701 0.42966 15.1727
rtibia 25.2499
rfoot -22.5755 -12.1906
rtoes 7.56538
lfemur -10.5555 -3.36156 -23.5032
ltibia 28.2495
lfoot -25.0232 12.5074
ltoes 6.51485
189
root -26.7232 16.518 -14.1796 173.22 80.6327 166.822
lowerback -8.83304 -0.373968 -4.63712
upperback 0.544707 0.011051 -0.0902456
thorax 5.53507 -0.123644 2.51804
lowerneck -21.8951 -2.70936 -6.34486
upperneck 29.8255 -2.34391 3.89067
head 13.9666 -1.00912 2.26679
rclavicle 2.96088e-014 1.03492e-014
rhumerus -32.2854 -6.14612 -86.8208
rradius 27.4301
rwrist -7.56081
rhand -12.3308 -29.9483
rfingers 7.12502
rthumb 13.7382 -59.4748
lclavicle 2.96088e-014 1.03492e-014
lhumerus -27.9816 -4.28172 94.6742
lradius 21.4082
lwrist 3.03414
lhand -18.4546 -6.86685
lfingers 7.12502
lthumb 7.83155 22.9681
rfemur -11.1315 0.536408 15.4594
rtibia 25.2652
rfoot -22.604 -12.1799
rtoes 7.65287
lfemur -10.5846 -3.3602 -23.2241
ltibia 28.2383
lfoot -24.9839 12.6319
ltoes 6.10875
190
root -26.7189 16.5146 -14.1841 171.855 80.4239 165.498
lowerback -8.84742 -0.482711 -4.87503
upperback 0.412525 -0.104731 -0.163098
thorax 5.41419 -0.180156 2.56026
lowerneck -21.3032 -2.66114 -6.33836
upperneck 29.7828 -2.31181 3.92903
head 13.8195 -0.986857 2.28757
rclavicle 1.64968e-014 -3.57812e-015
rhumerus -32.6842 -6.13734 -86.7814
rradius 27.4532
rwrist -7.31325
rhand -12.2689 -29.746
rfingers 7.12502
rthumb 13.7978 -59.2684
lclavicle 1.64968e-014 -3.57812e-015
lhumerus -28.4197 -4.06636 94.6053
lradius 21.4559
lwrist 2.88616
lhand -18.4581 -6.82722
lfingers 7.12502
lthumb 7.8282 23.0079
rfemur -11.0572 0.165591 15.1324
rtibia 25.2972
rfoot -22.6438 -11.9106
rtoes 7.68952
lfemur -10.3985 -3.29245 -23.5295
ltibia 28.2187
lfoot -24.9713 12.518
ltoes 6.47371
191
root -26.7254 16.5162 -14.184 171.328 80.461 164.901
lowerback -8.82403 -0.496749 -4.93678
upperback 0.579346 -0.114551 -0.171999
thorax 5.57789 -0.194231 2.58409
lowerneck -22.0524 -2.67893 -6.42557
upperneck 29.9218 -2.30212 4.01692
head 14.0423 -0.982094 2.34188
rclavicle 4.29685e-014 -3.15571e-015
rhumerus -32.1674 -6.0232 -86.8509
rradius 27.352
rwrist -7.11304
rhand -12.417 -29.5343
rfingers 7.12502
rthumb 13.6551 -59.0663
lclavicle 4.29685e-014 -3.15571e-015
lhumerus -27.9591 -3.86694 94.5133
lradius 21.3727
lwrist 2.65228
lhand -18.474 -6.98465
lfingers 7.12502
lthumb 7.81288 22.851
rfemur -11.1825 0.318865 15.0322
rtibia 25.3078
rfoot -22.5861 -12.0073
rtoes 7.969
lfemur -10.4911 -3.36703 -23.6278
ltibia 28.213
lfoot -24.9665 12.6272
ltoes 6.80086
192
root -26.7239 16.5126 -14.1839 170.793 80.3848 164.358
lowerback -8.85816 -0.483905 -5.06036
upperback 0.467876 -0.08014 -0.231559
thorax 5.47742 -0.174587 2.5961
lowerneck -21.4533 -2.64611 -6.33979
upperneck 29.7513 -2.34325 4.10076
head 13.842 -0.976852 2.35035
rclavicle 1.01535e-014 -3.18055e-015
rhumerus -32.4896 -5.98716 -86.9129
rradius 27.4452
rwrist -6.98685
rhand -12.8685 -29.5106
rfingers 7.12502
rthumb 13.22 -59.0714
lclavicle 1.01535e-014 -3.18055e-015
lhumerus -28.2373 -4.00471 94.5488
lradius 21.3312
lwrist 2.47326
lhand -18.6997 -7.14748
lfingers 7.12502
lthumb 7.59505 22.6961
rfemur -11.198 0.146751 14.9114
rtibia 25.3619
rfoot -22.5513 -11.9387
rtoes 7.93225
lfemur -10.5603 -3.41597 -23.7318
ltibia 28.1613
lfoot -24.9053 12.5384
ltoes 6.3493
193
root -26.7208 16.5128 -14.186 170.02 80.3012 163.627
lowerback -8.85277 -0.474612 -5.17762
upperback 0.412656 -0.0519588 -0.300373
thorax 5.41431 -0.159726 2.59387
lowerneck -21.0394 -2.64116 -6.24471
upperneck 29.6523 -2.38691 4.09376
head 13.712 -0.985035 2.32168
rclavicle 6.26948e-015 9.36773e-015
rhumerus -32.6516 -6.10391 -86.8942
rradius 27.3694
rwrist -6.81138
rhand -13.1224 -29.1679
rfingers 7.12502
rthumb 12.9753 -58.7444
lclavicle 6.26948e-015 9.36773e-015
lhumerus -28.4247 -4.05995 94.5496
lradius 21.2574
lwrist 2.23231
lhand -18.7206 -7.22289
lfingers 7.12502
lthumb 7.57486 22.6215
rfemur -11.1416 -0.144195 14.7306
rtibia 25.4311
rfoot -22.5719 -11.712
rtoes 7.82385
lfemur -10.4623 -3.36618 -23.8971
ltibia 28.0962
lfoot -24.9551 12.4013
ltoes 6.0946
194
root -26.7229 16.5159 -14.1867 169.756 80.3608 163.401
lowerback -8.78244 -0.492449 -5.2033
upperback 0.423163 -0.0800942 -0.258023
thorax 5.38816 -0.174795 2.64886
lowerneck -21.05 -2.61701 -6.29787
upperneck 29.6944 -2.30795 4.02872
head 13.7274 -0.965956 2.31984
rclavicle -4.13643e-015 -9.34288e-015
rhumerus -32.5819 -6.09779 -86.7955
rradius 27.262
rwrist -6.55489
rhand -13.014 -28.7389
rfingers 7.12502
rthumb 13.0797 -58.3087
lclavicle -4.13643e-015 -9.34288e-015
lhumerus -28.3675 -3.64455 94.4758
lradius 21.1404
lwrist 1.93248
lhand -18.6266 -7.37429
lfingers 7.12502
lthumb 7.66558 22.4668
rfemur -11.1426 0.000817712 14.7007
rtibia 25.5083
rfoot -22.6225 -11.7549
rtoes 8.00018
lfemur -10.3385 -3.40888 -23.9468
ltibia 28.0305
lfoot -24.9965 12.6185
ltoes 5.63214
195
root -26.7209 16.5114 -14.1873 169.94 80.3204 163.573
lowerback -8.83874 -0.406584 -5.12636
upperback 0.297872 0.0345348 -0.37174
thorax 5.27814 -0.108317 2.50198
lowerneck -20.5137 -2.66174 -5.99691
upperneck 29.6366 -2.47227 3.93702
head 13.5922 -1.01332 2.20237
rclavicle 2.81777e-014 -9.69075e-015
rhumerus -32.9884 -6.56299 -86.7719
rradius 27.4092
rwrist -6.23599
rhand -12.919 -28.538
rfingers 7.12502
rthumb 13.1713 -58.1019
lclavicle 2.81777e-014 -9.69075e-015
lhumerus -28.6748 -3.91821 94.4096
lradius 21.1165
lwrist 1.86258
lhand -18.6657 -7.47645
lfingers 7.12502
lthumb 7.62783 22.366
rfemur -11.1637 -0.0780183 14.7176
rtibia 25.5327
rfoot -22.6223 -11.7245
rtoes 7.91039
lfemur -10.3732 -3.46409 -23.9293
ltibia 28.0089
lfoot -24.8206 12.8238
ltoes 5.60565
196
root -26.7242 16.5105 -14.1844 169.604 80.2614 163.233
lowerback -8.77131 -0.636472 -5.20263
upperback 0.801184 -0.26942 -0.185404
thorax 5.79725 -0.288417 2.69805
lowerneck -22.5563 -2.62147 -6.47641
upperneck 30.0327 -2.15317 3.95513
head 14.1891 -0.934333 2.35511
rclavicle 1.20164e-014 6.07536e-015
rhumerus -31.6841 -5.84021 -86.8284
rradius 27.2781
rwrist -6.03935
rhand -12.6469 -28.2805
rfingers 7.12502
rthumb 13.4336 -57.8274
lclavicle 1.20164e-014 6.07536e-015
lhumerus -27.4422 -2.97343 94.3051
lradius 21.0066
lwrist 1.72431
lhand -18.4816 -7.5124
lfingers 7.12502
lthumb 7.80554 22.3235
rfemur -11.151 0.0268249 14.6608
rtibia 25.4931
rfoot -22.6541 -11.8682
rtoes 7.84119
lfemur -10.4061 -3.4653 -23.9833
ltibia 28.0403
lfoot -24.8051 12.7187
ltoes 5.60608
197
root -26.723 16.5144 -14.1853 169.663 80.1846 163.29
lowerback -8.81179 -0.681548 -5.19047
upperback 0.836091 -0.327706 -0.181176
thorax 5.86208 -0.319151 2.68737
lowerneck -22.5855 -2.63155 -6.44503
upperneck 30.0296 -2.14056 3.842
head 14.1915 -0.942083 2.30557
rclavicle 1.2584e-014 6.8705e-015
rhumerus -31.6088 -5.86912 -86.79
rradius 27.2437
rwrist -5.74317
rhand -12.4821 -28.1293
rfingers 7.12502
rthumb 13.5924 -57.6655
lclavicle 1.2584e-014 6.8705e-015
lhumerus -27.4053 -2.8368 94.2649
lradius 21.0719
lwrist 1.75622
lhand -18.3441 -7.48132
lfingers 7.12502
lthumb 7.93821 22.3496
rfemur -11.116 -0.0978478 14.643
rtibia 25.4884
rfoot -22.7085 -11.8164
rtoes 7.82551
lfemur -10.3202 -3.37154 -23.9952
ltibia 28.0536
lfoot -24.9372 12.3625
ltoes 4.82251
198
root -26.7333 16.5189 -14.182 171.172 80.4424 164.718
lowerback -8.7718 -0.606812 -4.90286
upperback 0.776909 -0.269092 -0.0975139
thorax 5.76958 -0.279777 2.62161
lowerneck -22.5515 -2.62553 -6.35817
upperneck 30.0347 -2.11256 3.68385
head 14.1814 -0.942725 2.23141
rclavicle 4.73667e-015 -2.88238e-015
rhumerus -31.6053 -5.85412 -86.795
rradius 27.2052
rwrist -5.53809
rhand -12.7206 -28.0805
rfingers 7.12502
rthumb 13.3625 -57.632
lclavicle 4.73667e-015 -2.88238e-015
lhumerus -27.4549 -2.8906 94.3196
lradius 21.1168
lwrist 1.7252
lhand -18.7058 -7.41663
lfingers 7.12502
lthumb 7.5891 22.4272
rfemur -11.3106 0.41163 14.9937
rtibia 25.4945
rfoot -22.7442 -12.1491
rtoes 7.6529
lfemur -10.483 -3.35112 -23.6653
ltibia 28.052
lfoot -24.8878 12.5479
ltoes 5.13787
199
root -26.7291 16.5146 -14.1822 170.689 80.2827 164.319
lowerback -8.72838 -0.539541 -5.04805
upperback 0.540419 -0.162346 -0.230114
thorax 5.48718 -0.216799 2.57948
lowerneck -21.4958 -2.63605 -6.01544
upperneck 29.9102 -2.28635 3.63756
head 13.9046 -0.979277 2.12183
rclavicle -5.32417e-014 7.88927e-015
rhumerus -32.3246 -6.3745 -86.7098
rradius 27.2602
rwrist -5.36942
rhand -13.014 -27.7717
rfingers 7.12502
rthumb 13.0797 -57.3416
lclavicle -5.32417e-014 7.88927e-015
lhumerus -28.1617 -3.49187 94.4089
lradius 21.1991
lwrist 1.86507
lhand -18.9797 -7.44644
lfingers 7.12502
lthumb 7.32472 22.4068
rfemur -11.1787 0.213218 14.8898
rtibia 25.5297
rfoot -22.7698 -12.1563
rtoes 7.3126
lfemur -10.4117 -3.32207 -23.7664
ltibia 28.0182
lfoot -24.6767 12.626
ltoes 6.35283
200
root -26.7287 16.5157 -14.1819 170.226 80.1608 163.93
lowerback -8.64092 -0.53789 -5.11947
upperback 0.507266 -0.153849 -0.304138
thorax 5.40229 -0.210392 2.5434
lowerneck -21.3238 -2.64063 -5.9438
upperneck 29.983 -2.34513 3.70603
head 13.9023 -0.984232 2.12914
rclavicle 1.93815e-014 -9.29318e-015
rhumerus -32.4661 -6.47408 -86.7513
rradius 27.246
rwrist -5.20994
rhand -13.4212 -27.7201
rfingers 7.12502
rthumb 12.6871 -57.3148
lclavicle 1.93815e-014 -9.29318e-015
lhumerus -28.3288 -3.746 94.4079
lradius 21.2469
lwrist 2.0122
lhand -18.8553 -7.42998
lfingers 7.12502
lthumb 7.4448 22.419
rfemur -11.0688 0.0819717 14.7987
rtibia 25.571
rfoot -22.7831 -12.1066
rtoes 7.5178
lfemur -10.2936 -3.42144 -23.8634
ltibia 27.9706
lfoot -24.6612 12.6954
ltoes 6.29576
